<?xml version="1.0" encoding="UTF-8"?>
<svg width="30px" height="27px" viewBox="0 0 30 27" version="1.1" xmlns="http://www.w3.org/2000/svg" xmlns:xlink="http://www.w3.org/1999/xlink">
    <title>lottery_icon_single</title>
    <defs>
        <linearGradient x1="100%" y1="50%" x2="0%" y2="50%" id="linearGradient-1">
            <stop stop-color="#F60000" offset="0%"></stop>
            <stop stop-color="#FF9400" offset="100%"></stop>
        </linearGradient>
    </defs>
    <g id="控件" stroke="none" stroke-width="1" fill="none" fill-rule="evenodd">
        <g id="lottery_icon_single" fill="url(#linearGradient-1)" fill-rule="nonzero">
            <g id="购物车">
                <path d="M10.0655251,21.39 C10.4507114,21.39 10.8156247,21.46 11.160265,21.6 C11.5049053,21.74 11.8089997,21.935 12.0725482,22.185 C12.3360967,22.435 12.5388263,22.73 12.6807371,23.07 C12.8226478,23.41 12.8936032,23.77 12.8936032,24.15 C12.8936032,24.53 12.8226478,24.89 12.6807371,25.23 C12.5388263,25.57 12.3360967,25.865 12.0725482,26.115 C11.8089997,26.365 11.5049053,26.565 11.160265,26.715 C10.8156247,26.865 10.4507114,26.94 10.0655251,26.94 C9.66006589,26.94 9.29008435,26.865 8.95558049,26.715 C8.62107664,26.565 8.32205047,26.365 8.05850197,26.115 C7.79495348,25.865 7.59222387,25.57 7.45031314,25.23 C7.30840242,24.89 7.23744705,24.53 7.23744705,24.15 C7.23744705,23.77 7.30840242,23.41 7.45031314,23.07 C7.59222387,22.73 7.79495348,22.435 8.05850197,22.185 C8.32205047,21.935 8.62107664,21.74 8.95558049,21.6 C9.29008435,21.46 9.66006589,21.39 10.0655251,21.39 Z M22.7158527,21.45 C23.101039,21.45 23.4710205,21.52 23.8257973,21.66 C24.1805742,21.8 24.4846686,21.995 24.7380806,22.245 C24.9914926,22.495 25.1942222,22.79 25.3462694,23.13 C25.4983166,23.47 25.5743402,23.83 25.5743402,24.21 C25.5743402,24.59 25.4983166,24.95 25.3462694,25.29 C25.1942222,25.63 24.9914926,25.925 24.7380806,26.175 C24.4846686,26.425 24.1805742,26.625 23.8257973,26.775 C23.4710205,26.925 23.101039,27 22.7158527,27 C22.3306665,27 21.9657532,26.925 21.6211128,26.775 C21.2764725,26.625 20.9774463,26.425 20.7240343,26.175 C20.4706223,25.925 20.2678927,25.63 20.1158455,25.29 C19.9637983,24.95 19.8877747,24.59 19.8877747,24.21 C19.8877747,23.83 19.9637983,23.47 20.1158455,23.13 C20.2678927,22.79 20.4706223,22.495 20.7240343,22.245 C20.9774463,21.995 21.2764725,21.8 21.6211128,21.66 C21.9657532,21.52 22.3306665,21.45 22.7158527,21.45 Z M27.8246389,4.41 C28.3922818,4.41 28.8332187,4.485 29.1474496,4.635 C29.4616805,4.785 29.6846831,4.97 29.8164573,5.19 C29.9482315,5.41 30.0090504,5.645 29.9989139,5.895 C29.9887775,6.145 29.9532998,6.36 29.8924809,6.54 C29.831662,6.72 29.704956,7.09 29.5123629,7.65 C29.3197698,8.21 29.1018354,8.825 28.8585599,9.495 C28.6152844,10.165 28.3770771,10.83 28.143938,11.49 C27.910799,12.15 27.7334106,12.67 27.6117728,13.05 C27.3482243,13.85 27.0137205,14.405 26.6082612,14.715 C26.202802,15.025 25.7061145,15.18 25.1181986,15.18 L24.0842776,15.18 L22.1076639,15.18 L19.5228614,15.18 L16.6947833,15.18 L9.15324186,15.18 L9.60938348,17.88 L24.935742,17.88 C25.9088441,17.88 26.3953951,18.29 26.3953951,19.11 C26.3953951,19.51 26.2990986,19.855 26.1065054,20.145 C25.9139123,20.435 25.5337943,20.58 24.9661514,20.58 L23.5064982,20.58 L20.6784202,20.58 L17.1813344,20.58 L13.6234298,20.58 L10.7041234,20.58 L9.0316041,20.58 C8.62614488,20.58 8.28657278,20.49 8.01288781,20.31 C7.73920284,20.13 7.51113203,19.895 7.32867538,19.605 C7.14621873,19.315 6.99923976,19 6.88773848,18.66 C6.77623719,18.32 6.69007711,18 6.62925823,17.7 C6.60898527,17.58 6.55323462,17.29 6.4620063,16.83 C6.37077797,16.37 6.25927669,15.795 6.12750244,15.105 C5.9957282,14.415 5.84874923,13.645 5.68656554,12.795 C5.52438186,11.945 5.36219817,11.09 5.20001448,10.23 C4.81482822,8.21 4.37895956,5.96 3.8924085,3.48 L1.61170039,3.48 C1.30760598,3.48 1.05419397,3.405 0.851464359,3.255 C0.64873475,3.105 0.481482822,2.925 0.349708576,2.715 C0.21793433,2.505 0.126706006,2.28 0.0760236035,2.04 C0.0253412012,1.8 0,1.58 0,1.38 C0,0.98 0.136842486,0.65 0.410527459,0.39 C0.684212432,0.13 1.05419397,0 1.52047207,0 L2.18947978,0 L2.79766861,0 L3.55790464,0 L4.59182565,0 C4.99728487,0 5.32165225,0.06 5.56492778,0.18 C5.80820331,0.3 6.00079644,0.45 6.14270716,0.63 C6.28461789,0.81 6.3859827,1 6.44680158,1.2 C6.50762046,1.4 6.55830286,1.57 6.59884879,1.71 C6.63939471,1.87 6.67994063,2.095 6.72048655,2.385 C6.76103247,2.675 6.80157839,2.97 6.84212432,3.27 C6.9029432,3.63 6.96376208,4.01 7.02458097,4.41 L27.8246389,4.41 Z" id="形状"></path>
            </g>
        </g>
    </g>
</svg>