<?xml version="1.0" encoding="UTF-8"?>
<svg width="18px" height="17px" viewBox="0 0 18 17" version="1.1" xmlns="http://www.w3.org/2000/svg" xmlns:xlink="http://www.w3.org/1999/xlink">
    <title>lottery_icon_novoice</title>
    <g id="控件" stroke="none" stroke-width="1" fill="none" fill-rule="evenodd">
        <g id="lottery_icon_voice" fill="#494949">
            <path d="M5.02010444,1.39485817 L3.70853856,0.130769231 C1.53768258,1.74358293 0.135678498,4.18461538 0,6.97435216 L1.80903958,6.97435216 C1.94471808,4.66408894 3.16582456,2.65896755 5.02010444,1.39485817 L5.02010444,1.39485817 Z M16.1909604,6.97435216 L18,6.97435216 C17.8643215,4.18461538 16.4170983,1.74358293 14.2914614,0.130769231 L12.9798956,1.39485817 C14.8341754,2.65896755 16.0552819,4.66408894 16.1909604,6.97435216 Z M14.4271399,7.41024279 C14.4271399,4.75127524 12.9346765,2.48461538 10.356785,1.9179351 L10.356785,1.30769231 C10.356785,0.566659856 9.76885189,0 9,0 C8.23114811,0 7.64321502,0.566659856 7.64321502,1.30769231 L7.64321502,1.9179351 C5.06532354,2.52819832 3.57286006,4.75127524 3.57286006,7.41024279 L3.57286006,11.7692308 L1.76382048,13.5128137 L1.76382048,14.3846154 L16.2361795,14.3846154 L16.2361795,13.5128137 L14.4271399,11.7692308 L14.4271399,7.41024279 Z M9,17 C9.1356785,17 9.2261379,17 9.3618164,16.9563966 C9.94974949,16.8256274 10.4472444,16.4333197 10.6733611,15.9102428 C10.7638205,15.6923077 10.8090396,15.4743522 10.8090396,15.2128137 L7.19096042,15.2128137 C7.19096042,16.2153846 8.00503141,17 9,17 L9,17 Z" id="形状" fill-rule="nonzero"></path>
            <rect id="矩形" stroke="#FFFFFF" transform="translate(9.633927, 8.359462) rotate(-44.000000) translate(-9.633927, -8.359462) " x="8.63392739" y="-2.14053832" width="2" height="21" rx="1"></rect>
        </g>
    </g>
</svg>