<?xml version="1.0" encoding="UTF-8"?>
<svg width="16px" height="16px" viewBox="0 0 16 16" version="1.1" xmlns="http://www.w3.org/2000/svg" xmlns:xlink="http://www.w3.org/1999/xlink">
    <title>pop_icon_over</title>
    <g id="控件" stroke="none" stroke-width="1" fill="none" fill-rule="evenodd">
        <g id="pop_icon_over" fill="#494949" fill-rule="nonzero">
            <g id="余额-(2)" transform="translate(0.000000, 2.000000)">
                <path d="M14.5276644,4.73269616 C13.744237,3.97834835 12.7511769,3.505714 11.6728404,3.3614874 L11.6728405,1.72846183 L11.6681857,1.72846183 C11.6681857,1.71736871 11.6705466,1.70401829 11.6705466,1.69294129 C11.6705466,1.17596674 11.1083221,0.738869059 10.0460597,0.428229645 C9.0991288,0.153126886 7.84561831,0 6.51848518,0 C5.18897444,0 3.9354807,0.153126886 2.990827,0.430438585 C1.92858135,0.74106188 1.36640708,1.17817568 1.36640708,1.6951986 C1.36640708,1.73065465 1.368701,1.7661913 1.37563293,1.80171184 L1.37563293,1.80171184 L1.37563293,2.98208034 C1.22356542,3.04197993 1.04613099,3.11963172 0.873317871,3.2128429 C0.292658414,3.52788409 -0.00226750613,3.88513715 1.31260735e-05,4.27342837 C1.31260735e-05,4.3089489 0.00232031584,4.34440495 0.00925225371,4.37992548 L0.00695834272,4.37992548 L0.00695834272,6.19271432 L0.00232030208,6.19271432 C0.00232030208,6.44785592 0.119845277,6.68750263 0.35256785,6.90051299 C0.58527367,7.11352334 0.933227307,7.29541491 1.35490406,7.44633285 L1.35490406,8.96616998 L1.35026602,8.96616998 C1.35026602,9.23026025 1.47701686,9.47872663 1.73046829,9.70503904 C2.55994115,10.4505672 4.69588522,10.8743789 6.44705598,10.8743789 C6.56680789,10.8743789 6.68664351,10.87217 6.80416849,10.8677037 C6.98391356,11.1206525 7.18895856,11.3602992 7.41709333,11.5821937 C8.36638507,12.4963275 9.62903768,13 10.9723453,13 C12.3156363,13 13.5783559,12.4963275 14.5276643,11.5821937 C15.4769561,10.6680438 16,9.45209025 16,8.15854942 C16,6.86499244 15.4769561,5.64910339 14.5276644,4.73269616 L14.5276644,4.73269616 L14.5276644,4.73269616 Z M1.92628745,3.31714719 L1.92628745,2.50723706 C2.1912419,2.67811615 2.54612749,2.82896959 2.99082701,2.95770129 C3.93784159,3.23501301 5.19126835,3.38812376 6.5184852,3.38812376 C7.84791222,3.38812376 9.10140597,3.23501301 10.0460597,2.95770129 C10.4953972,2.82676064 10.8525097,2.67364988 11.1198251,2.50062633 L11.1198251,3.31935613 C11.0714354,3.31714718 11.0207351,3.31714718 10.9723454,3.31714718 C9.62903769,3.31714718 8.36638507,3.82075517 7.41709334,4.73496958 C7.33180024,4.81702314 7.24886803,4.90357522 7.16821297,4.992304 C4.94240473,5.0855313 2.70742085,4.51968578 2.07835495,3.94282778 C1.98619689,3.85848466 1.9355133,3.78083286 1.9355133,3.72314222 L1.92399354,3.72314222 L1.92399354,3.35481217 C1.92628745,3.35260321 1.93092549,3.35260321 1.93321939,3.35260321 L1.92628745,3.31714719 L1.92628745,3.31714719 L1.92628745,3.31714719 Z M3.14982647,0.938577343 C4.04609048,0.676760519 5.24195193,0.532533927 6.51848518,0.532533927 C7.79493472,0.532533927 8.99081292,0.676760519 9.88712716,0.938577343 C10.7972551,1.20481206 11.1198251,1.51103358 11.1198251,1.69294129 C11.1198251,1.87489737 10.7972551,2.18111889 9.88712716,2.44735361 C8.99081292,2.70917043 7.79493472,2.85339703 6.51848518,2.85339703 C5.24195193,2.85339703 4.04609048,2.70917043 3.14982647,2.44735361 C2.23964833,2.18111889 1.9170616,1.87489737 1.9170616,1.69294129 C1.9170616,1.51103358 2.23964833,1.20481206 3.14982647,0.938577343 L3.14982647,0.938577343 L3.14982647,0.938577343 Z M1.37099491,3.5612118 L1.37099491,3.71872433 L1.38249793,3.71872433 C1.38249793,3.93173468 1.48851989,4.13586086 1.6958588,4.3267011 C2.45855725,5.02563173 4.60138304,5.53151316 6.66589793,5.5337221 C5.00460809,5.72675517 3.71198401,5.58031963 2.91246588,5.4227426 C1.9746939,5.23636863 1.17517577,4.92132744 0.769656827,4.57964987 C0.60600258,4.44203399 0.548454013,4.32891004 0.548454013,4.2712194 C0.550747897,4.03824792 0.917086273,3.76973977 1.37099491,3.5612118 L1.37099491,3.5612118 L1.37099491,3.5612118 Z M0.73277013,6.51222177 C0.631386202,6.4190106 0.573770677,6.32805675 0.557612863,6.23931183 L0.557612863,6.23931183 L0.557612863,5.09660831 C1.05763401,5.45384526 1.8617902,5.75780945 2.80187282,5.94418343 C3.52075264,6.08620108 4.297248,6.15719378 5.09911027,6.15719378 C5.53229003,6.15719378 5.9723515,6.1372165 6.41710126,6.09508524 C6.2074182,6.52550771 6.06455981,6.98258267 5.99314736,7.45740983 C4.95163057,7.50623242 3.8018649,7.43744867 2.83412145,7.26884303 C1.82033246,7.09349768 1.07379183,6.82286118 0.73277013,6.51222177 L0.73277013,6.51222177 L0.73277013,6.51222177 Z M5.95396679,8.48694103 C4.55990855,8.52018812 3.25121039,8.14966524 2.51382863,7.75248986 C3.39405205,7.92336895 4.39632127,8.00769596 5.33411,8.00769596 C5.54151588,8.00769596 5.74426698,8.00322969 5.94474093,7.99434553 C5.94238004,8.0476344 5.94238004,8.10305159 5.94238004,8.15634046 C5.94238006,8.26725547 5.94703484,8.37823497 5.95396679,8.48694103 L5.95396679,8.48694103 L5.95396679,8.48694103 Z M2.10601577,9.31232991 C1.97697104,9.19694864 1.91019662,9.08603363 1.90326467,8.97953652 L1.90783574,8.97953652 L1.90783574,8.00769597 C2.32264752,8.302776 2.95623424,8.57126805 3.68668406,8.75764201 C4.19586408,8.88851818 4.92860781,9.02166777 5.77422171,9.02166777 C5.85717067,9.02166777 5.94010289,9.01945882 6.0230351,9.01724988 C6.1083282,9.47872661 6.26267287,9.92251564 6.48159851,10.3374432 C4.7327719,10.3485363 2.75812118,9.90034553 2.10601577,9.31232991 L2.10601577,9.31232991 L2.10601577,9.31232991 Z M10.9723454,12.4674822 C8.50465567,12.4674822 6.49773958,10.5348942 6.49773958,8.1585494 C6.49773958,5.7821885 8.50465567,3.8496005 10.9723454,3.8496005 C13.440102,3.8496005 15.4470014,5.7821885 15.4470014,8.1585494 C15.4470014,10.5348942 13.440102,12.4674822 10.9723454,12.4674822 L10.9723454,12.4674822 L10.9723454,12.4674822 Z" id="形状"></path>
                <path d="M12.2639733,4 L11.4355983,5.6779484 C11.2145984,6.13276058 11.0793663,6.43438749 11.0300265,6.58524376 L11.0150405,6.58524376 C10.8690952,6.21992808 10.4570675,5.35977852 9.77897289,4 L9,4 L10.4506739,6.73603151 L9.26180961,6.73603151 L9.26180961,7.34169996 L10.6566254,7.34169996 L10.6566254,8.17361 L9.26180961,8.17361 L9.26180961,8.78629981 L10.6566254,8.78629981 L10.6566254,10 L11.3476318,10 L11.3476318,8.78629981 L12.6931234,8.78629981 L12.6931234,8.17361 L11.3476318,8.17361 L11.3476318,7.33935381 L12.6931234,7.33935381 L12.6931234,6.73603151 L11.5364766,6.73603151 L13,4 L12.2639733,4 L12.2639733,4 L12.2639733,4 Z" id="路径"></path>
            </g>
        </g>
    </g>
</svg>