<?xml version="1.0" encoding="UTF-8"?>
<svg width="16px" height="16px" viewBox="0 0 16 16" version="1.1" xmlns="http://www.w3.org/2000/svg" xmlns:xlink="http://www.w3.org/1999/xlink">
    <title>pop_icon_account</title>
    <g id="控件" stroke="none" stroke-width="1" fill="none" fill-rule="evenodd">
        <g id="pop_icon_account" fill="#494949" fill-rule="nonzero">
            <g id="pop_icon_zhanghao">
                <path d="M8,0 C3.58898721,0 0,3.58942839 0,8.00098341 C0,12.4105716 3.58898721,16 8,16 C12.4110128,16 16,12.4105716 16,7.99901659 C15.9980334,3.58942839 12.4110128,0 8,0 Z M8,15.337185 C3.95476894,15.337185 0.664700104,12.0447449 0.664700104,7.99901659 C0.664700104,3.95328827 3.95476894,0.660848187 8,0.660848187 C12.0452311,0.660848187 15.3352999,3.95328827 15.3352999,7.99901659 C15.3352999,12.0467117 12.0452311,15.337185 8,15.337185 Z M9.55752212,8.1366933 C10.3087512,7.63318992 10.8043264,6.77762753 10.8043264,5.80405655 C10.8043264,4.2542102 9.54965585,2.99938538 8,2.99938538 C6.45034415,2.99938538 5.19567355,4.25617702 5.19567355,5.80405655 C5.19567355,6.77566072 5.69124877,7.63318992 6.44247788,8.1366933 C4.86529007,8.75820528 3.74827926,10.294284 3.74827926,12.0939152 L3.74827926,12.105716 C3.74827926,12.3515673 3.94690265,12.5502151 4.1927237,12.5502151 C4.43854475,12.5502151 4.53687316,12.3515673 4.53687316,12.105716 C4.53687316,12.0998156 4.53490659,12.095882 4.53490659,12.0899816 C4.53687316,10.2333128 6.14159291,8.62839583 8,8.62839583 C9.85840709,8.62839583 11.4650934,10.2352797 11.4650934,12.0939152 C11.4650934,12.095882 11.4414946,12.5502151 11.8112094,12.5502151 C12.0550639,12.5502151 12.2536873,12.3515673 12.2536873,12.1096497 L12.2536873,12.105716 L12.2536873,12.0939152 C12.2517207,10.294284 11.1347099,8.7582053 9.55752212,8.1366933 L9.55752212,8.1366933 Z M8,7.92427781 C6.82989184,7.92427781 5.88003933,6.97430855 5.88003933,5.80405655 C5.88003933,4.63380455 6.82989184,3.68383528 8,3.68383528 C9.17010816,3.68383528 10.1199607,4.63380455 10.1199607,5.80405655 C10.1179941,6.97627536 9.17010816,7.92427781 8,7.92427781 Z" id="形状"></path>
            </g>
        </g>
    </g>
</svg>