<?xml version="1.0" encoding="UTF-8"?>
<svg width="16px" height="16px" viewBox="0 0 16 16" version="1.1" xmlns="http://www.w3.org/2000/svg" xmlns:xlink="http://www.w3.org/1999/xlink">
    <title>nav_icon_search</title>
    <g id="控件" stroke="none" stroke-width="1" fill="none" fill-rule="evenodd">
        <g id="nav_icon_search" fill="#707070" fill-rule="nonzero">
            <g id="形状">
                <path d="M13.1173574,11.4691129 L15.7885888,13.9993986 C15.9238708,14.1261081 16,14.2988262 16,14.4790377 C16,14.6592491 15.9238708,14.8319672 15.7885888,14.9586767 C15.6541409,15.0857336 15.4721477,15.157336 15.2822321,15.1578948 C15.0923166,15.157336 14.9103234,15.0857336 14.7758755,14.9586767 L12.1057871,12.4294738 C9.58654477,14.3915555 6.00853287,14.5608779 3.2953819,12.8464089 C0.582230919,11.1319399 -0.626853023,7.93760072 0.318164436,4.9807495 C1.26318189,2.02389827 4.13965891,0.00115583777 7.40112807,5.59769416e-08 C10.2660099,-0.000341788238 12.8739474,1.565041 14.0969257,4.01907117 C15.3199039,6.47310135 14.9383731,9.37523015 13.1173574,11.4701956 L13.1173574,11.4691129 Z M7.40112807,1.35771439 C4.10545633,1.36248412 1.43504128,3.89199659 1.43000587,7.01377453 C1.43000587,10.1375303 4.10336834,12.6698347 7.40112807,12.6698347 C10.6988878,12.6698347 13.3722503,10.1375303 13.3722503,7.01377453 C13.3722503,3.89001877 10.6988878,1.35771439 7.40112807,1.35771439 Z"></path>
            </g>
        </g>
    </g>
</svg>